
        <svg xmlns="http://www.w3.org/2000/svg" xmlns:xlink="http://www.w3.org/1999/xlink" version="1.1" width="3300" 
        height="1505.8627899182266" viewBox="0 0 3300 1505.8627899182266">
			<rect fill="#b35642" width="3300" height="1505.8627899182266"/>
			<g transform="scale(14.999999999999998) translate(10, 10)">
				<defs id="SvgjsDefs1541"></defs><g id="SvgjsG1542" featureKey="symbolFeature-0" transform="matrix(0.5957446808510638,0,0,0.5957446808510638,70.2127659574468,-16.680851063829785)" fill="#ffffff"><title xmlns="http://www.w3.org/2000/svg">Mountains</title><desc xmlns="http://www.w3.org/2000/svg">Created with Sketch.</desc><g xmlns="http://www.w3.org/2000/svg" stroke="none" stroke-width="1" fill="none" fill-rule="evenodd"><g fill="#ffffff"><path d="M65.9670617,73 L45.369746,56.6092715 L39.1533369,51.8410596 L41.8648371,63.4635762 L34.6341698,61.6754967 L23.5161375,67.2695039 L16.2562235,62.8675497 L3,71.2119205 L18.4440966,53.9725516 L23.5161375,61.9735099 L37.9182291,45.7706932 L45.369746,53.9725516 L51.5062894,45.7706932 L60.83634,28 L67.5364435,35.4562349 L74.4870181,47.6347519 L80.3730903,42.2911169 C91.3589883,56.6158535 96.9008502,64.1780647 96.9986759,64.9777505 C97.0965015,65.7774363 91.7739269,60.7031751 81.0309521,49.7549669 L79.8258408,64.9777505 L68.678562,51.8410596 L60.83634,36.9403974 L57.5312831,47.6347519 L67.5364435,60.1854305 L55.1210607,55.7152318 L65.9670617,73 Z"></path></g></g></g><g id="SvgjsG1543" featureKey="nameFeature-0" transform="matrix(1.165881596554729,0,0,1.165881596554729,-0.3730817550986862,33.38250593205594)" fill="#ffffff"><path d="M0.32 16 l0 -4 l13.6 0 l0 4 l-4.6 0 l0 24 l-4.4 0 l0 -24 l-4.6 0 z M24.568 16 l0 7.8 l6.04 0 l0 4 l-6.04 0 l0 8.2 l7.6 0 l0 4 l-12 0 l0 -28 l12 0 l0 4 l-7.6 0 z M52.896 40 l-4.48 0 c-0.24 -0.72 -0.4 -1.16 -0.4 -3.44 l0 -4.4 c0 -2.6 -0.88 -3.56 -2.88 -3.56 l-1.52 0 l0 11.4 l-4.4 0 l0 -28 l6.64 0 c4.56 0 6.52 2.12 6.52 6.44 l0 2.2 c0 2.88 -0.92 4.72 -2.88 5.64 l0 0.08 c2.2 0.92 2.92 3 2.92 5.92 l0 4.32 c0 1.36 0.04 2.36 0.48 3.4 z M45.736 16 l-2.12 0 l0 8.6 l1.72 0 c1.64 0 2.64 -0.72 2.64 -2.96 l0 -2.76 c0 -2 -0.68 -2.88 -2.24 -2.88 z M73.304 40 l-4.48 0 c-0.24 -0.72 -0.4 -1.16 -0.4 -3.44 l0 -4.4 c0 -2.6 -0.88 -3.56 -2.88 -3.56 l-1.52 0 l0 11.4 l-4.4 0 l0 -28 l6.64 0 c4.56 0 6.52 2.12 6.52 6.44 l0 2.2 c0 2.88 -0.92 4.72 -2.88 5.64 l0 0.08 c2.2 0.92 2.92 3 2.92 5.92 l0 4.32 c0 1.36 0.04 2.36 0.48 3.4 z M66.144 16 l-2.12 0 l0 8.6 l1.72 0 c1.64 0 2.64 -0.72 2.64 -2.96 l0 -2.76 c0 -2 -0.68 -2.88 -2.24 -2.88 z M89.792 12 l4.48 28 l-4.44 0 l-0.76 -5.08 l-5.4 0 l-0.76 5.08 l-4.04 0 l4.48 -28 l6.44 0 z M86.312 16.96 l-2.08 14.16 l4.24 0 l-2.08 -14.16 l-0.08 0 z M109.24000000000001 29.560000000000002 l4.16 0 l0 3.72 c0 4.48 -2.24 7.04 -6.56 7.04 s-6.56 -2.56 -6.56 -7.04 l0 -14.56 c0 -4.48 2.24 -7.04 6.56 -7.04 s6.56 2.56 6.56 7.04 l0 2.72 l-4.16 0 l0 -3 c0 -2 -0.88 -2.76 -2.28 -2.76 s-2.28 0.76 -2.28 2.76 l0 15.12 c0 2 0.88 2.72 2.28 2.72 s2.28 -0.72 2.28 -2.72 l0 -4 z M124.44800000000001 18.44 l0 15.12 c0 2 0.88 2.76 2.28 2.76 s2.28 -0.76 2.28 -2.76 l0 -15.12 c0 -2 -0.88 -2.76 -2.28 -2.76 s-2.28 0.76 -2.28 2.76 z M120.048 33.28 l0 -14.56 c0 -4.48 2.36 -7.04 6.68 -7.04 s6.68 2.56 6.68 7.04 l0 14.56 c0 4.48 -2.36 7.04 -6.68 7.04 s-6.68 -2.56 -6.68 -7.04 z M139.296 16 l0 -4 l13.6 0 l0 4 l-4.6 0 l0 24 l-4.4 0 l0 -24 l-4.6 0 z M167.38400000000001 12 l4.48 28 l-4.44 0 l-0.76 -5.08 l-5.4 0 l-0.76 5.08 l-4.04 0 l4.48 -28 l6.44 0 z M163.904 16.96 l-2.08 14.16 l4.24 0 l-2.08 -14.16 l-0.08 0 z"></path></g>
			</g>
		</svg>
	